<?xml version="1.0" encoding="utf-8"?>
<!-- Generator: Adobe Illustrator 22.1.0, SVG Export Plug-In . SVG Version: 6.00 Build 0)  -->
<svg version="1.1" id="Layer_1" xmlns="http://www.w3.org/2000/svg" xmlns:xlink="http://www.w3.org/1999/xlink" x="0px" y="0px"
	 viewBox="0 0 231.5 50" style="enable-background:new 0 0 231.5 50;" xml:space="preserve">
<style type="text/css">
	.st0{fill:#FFFFFF;}
</style>
<g>
	<path class="st0" d="M116.1,21c-0.1-0.3-0.2-0.3-0.3,0l-1.9,6.1c-0.1,0.3,0.1,0.4,0.3,0.4h3.4c0.3,0,0.4-0.2,0.3-0.4L116.1,21z
		 M111.1,13.2c0.1-0.3,0.3-0.4,0.6-0.4h8.5c0.3,0,0.5,0.2,0.6,0.4l8.5,23.4c0.1,0.3-0.1,0.4-0.3,0.4h-7.5c-0.3,0-0.5-0.2-0.6-0.4
		l-0.7-2.1c-0.1-0.3-0.3-0.4-0.6-0.4h-7.6c-0.3,0-0.5,0.2-0.6,0.4l-0.7,2.1c-0.1,0.3-0.3,0.4-0.6,0.4h-7.5c-0.3,0-0.4-0.2-0.3-0.4
		L111.1,13.2z"/>
	<path class="st0" d="M205.9,29.7c-3.7,0-4.8-2.7-4.8-4.7c0-2.5,1.6-4.8,4.9-4.8c3.5,0,4.8,2.6,4.8,4.7
		C210.8,27.1,209.5,29.7,205.9,29.7 M206,12.2c-8.7,0-12.9,6-12.9,12.8c0,5.4,2.9,12.6,12.7,12.6c9.4,0,13-6.8,13-12.9
		C218.8,19.1,215.5,12.2,206,12.2"/>
	<path class="st0" d="M163.3,36.6c0,0.3-0.2,0.4-0.4,0.4h-6.6c-0.3,0-0.4-0.2-0.4-0.4V13.2c0-0.3,0.2-0.4,0.4-0.4h6.6
		c0.3,0,0.4,0.2,0.4,0.4L163.3,36.6L163.3,36.6z"/>
	<path class="st0" d="M184.1,12.7c-0.3,0-0.4,0.2-0.4,0.4v12.3c0,0.3-0.1,0.3-0.3,0.1L175.5,13c-0.2-0.3-0.4-0.4-0.7-0.4h-7.3
		c-0.3,0-0.4,0.2-0.4,0.4v23.5c0,0.3,0.2,0.4,0.4,0.4h6.2c0.3,0,0.4-0.2,0.4-0.4V24.3c0-0.3,0.1-0.3,0.3-0.1l8,12.5
		c0.2,0.3,0.4,0.4,0.7,0.4h7.3c0.3,0,0.4-0.2,0.4-0.4V13.2c0-0.3-0.2-0.4-0.4-0.4L184.1,12.7L184.1,12.7z"/>
	<path class="st0" d="M223.5,15.7v1.2h0.9c0.2,0,0.7,0,0.7-0.6c0-0.6-0.4-0.6-0.7-0.6H223.5z M222.5,14.9h2c0.5,0,1,0,1.4,0.4
		c0.2,0.3,0.3,0.6,0.3,1c0,0.9-0.6,1.1-0.9,1.3l1,1.8h-1.3l-0.8-1.6h-0.7v1.6h-1.1V14.9z"/>
	<path class="st0" d="M224,20.8c-2,0-3.6-1.6-3.6-3.6s1.6-3.6,3.6-3.6s3.6,1.6,3.6,3.6S226,20.8,224,20.8 M224,12.2
		c-2.8,0-5,2.3-5,5c0,2.8,2.3,5,5,5c2.8,0,5-2.3,5-5C229,14.4,226.7,12.2,224,12.2"/>
	<path class="st0" d="M39.4,21c-0.1-0.3-0.2-0.3-0.3,0l-1.9,6.1c-0.1,0.3,0.1,0.4,0.3,0.4H41c0.3,0,0.4-0.2,0.3-0.4L39.4,21z
		 M34.4,13.2c0.1-0.3,0.3-0.4,0.6-0.4h8.5c0.3,0,0.5,0.2,0.6,0.4l8.5,23.5c0.1,0.3-0.1,0.4-0.3,0.4h-7.5c-0.3,0-0.5-0.2-0.6-0.4
		l-0.7-2.1c-0.1-0.3-0.3-0.4-0.6-0.4h-7.6c-0.3,0-0.5,0.2-0.6,0.4l-0.7,2.1c-0.1,0.3-0.3,0.4-0.6,0.4H26c-0.3,0-0.4-0.2-0.3-0.4
		L34.4,13.2z"/>
	<path class="st0" d="M64.5,23.3h-2.1v-4.1h2.1c1,0,2.8,0.1,2.8,2.1C67.2,23.3,65.4,23.3,64.5,23.3 M71.4,28.8
		c3.4-1.5,4.7-4.9,4.7-7.8c0-3.7-2.4-8.2-8.8-8.2l0,0h-6.1l0,0h-7v24.4h8.2v-7.5h1l4.5,7.5h8.2L71.4,28.8z"/>
	<path class="st0" d="M141.3,23.3h-2.1v-4.1h2.1c1,0,2.8,0.1,2.8,2.1S142.3,23.3,141.3,23.3 M148.2,28.8c3.4-1.5,4.7-4.9,4.7-7.8
		c0-3.7-2.4-8.2-8.8-8.2l0,0H138l0,0h-7v24.4h8.2v-7.5h1l4.5,7.5h8.2L148.2,28.8z"/>
	<path class="st0" d="M88.7,31.5h-0.9v-3.7h0.7c1.4,0,3.6-0.2,3.6,1.8C92.1,31.4,90.1,31.5,88.7,31.5 M87.7,18.7h0.7
		c1.4,0,3.3-0.2,3.3,1.8c0,1.8-1.6,1.9-3.1,1.9h-0.9C87.7,22.5,87.7,18.7,87.7,18.7z M98.3,24.6v-0.2c2.1-0.7,2.9-2.8,2.9-5
		c0-5.6-4.8-6.8-9.6-6.8H79.4l0,0h-0.2c-0.3,0-0.5,0.2-0.5,0.5v23.5c0,0.3,0.2,0.5,0.5,0.5h4.3l0,0h9.8c4.3,0,8.9-1.7,8.9-6.7
		C102.4,27.4,101,25.5,98.3,24.6"/>
	<path class="st0" d="M15,23.5v4.9h3.5c-0.8,1.2-2.3,2-4.4,2c-4.1,0-5.4-3.1-5.4-5.5c0-2.9,1.8-5.6,5.5-5.6c2.3,0,3.7,0.9,4.5,2.2
		l7.6-1.1c-0.8-4.2-4.3-8.7-12.2-8.7c-8.7,0.1-13,6.2-13,13.1c0,5.6,2.9,12.9,12.9,12.9c7.2,0,10.9-4,12.2-8.7
		c0.6-1.8,0.6-3.5,0.7-5.6H15L15,23.5z"/>
</g>
</svg>
